
<svg version="1.0" xmlns="http://www.w3.org/2000/svg"
 width="264.000000pt" height="288.000000pt" viewBox="0 0 264.000000 288.000000"
 preserveAspectRatio="xMidYMid meet">

<g transform="translate(0.000000,288.000000) scale(0.100000,-0.100000)"
fill="currentColor" stroke="none">
<path d="M1275 2391 c-140 -36 -210 -174 -149 -292 7 -15 32 -43 54 -61 40
-35 40 -35 40 -106 l0 -72 -209 -2 -208 -3 96 -164 96 -164 3 86 3 87 109 0
110 0 0 -450 c0 -426 -1 -450 -17 -441 -10 6 -79 48 -153 94 l-135 84 0 59 c0
55 2 59 28 68 18 7 45 6 80 -1 28 -6 53 -10 54 -9 4 3 -375 346 -382 346 -3 0
-5 -120 -5 -267 1 -265 1 -268 23 -284 132 -93 609 -409 617 -409 6 0 153 95
326 212 l314 212 0 268 c0 147 -2 268 -5 268 -7 0 -385 -343 -382 -346 1 -1
26 3 54 9 35 7 62 8 80 1 26 -9 28 -13 28 -68 l0 -59 -135 -84 c-74 -46 -143
-88 -152 -94 -17 -9 -18 15 -18 441 l0 450 110 0 109 0 3 -87 3 -86 93 157
c50 87 92 162 92 167 0 5 -92 9 -205 9 l-205 0 0 72 c0 71 0 71 41 106 94 81
103 199 21 285 -54 57 -154 87 -227 68z m138 -141 c47 -52 27 -121 -42 -150
-66 -27 -151 24 -151 89 0 32 32 78 64 92 40 17 99 3 129 -31z"/>
</g>
</svg>
